#N canvas 478 22 640 752 10;
#X floatatom 213 79 5 0 0 0 - - -;
#X obj 295 386 f;
#X obj 244 554 print;
#X obj 244 490 f;
#X obj 198 203 t b b f;
#X obj 198 386 counter 0 31;
#X obj 198 117 f;
#X obj 198 57 bng 15 250 50 0 empty empty empty 17 7 0 10 -262144 -1
-1;
#X text 222 56 Click to execute;
#X text 250 80 Input;
#X text 478 386 Count;
#X obj 198 333 t b b;
#X obj 448 386 f;
#X obj 295 426 expr $f1 >> 1 \; if ($f1 & 1 \, $f2 + 1 \, $f2);
#X obj 198 146 expr if ($f1 < 0 \, ($f1 * -1) - 1 \, $f1) \; $f1 <
0;
#X msg 217 247 0;
#X msg 254 432 stop;
#X msg 204 278 carrybang;
#X obj 198 306 metro 1;
#X obj 244 526 expr if ($f2 \, 32 - $f1 \, $f1);
#X connect 0 0 6 1;
#X connect 1 0 13 0;
#X connect 3 0 19 0;
#X connect 4 0 17 0;
#X connect 4 0 18 0;
#X connect 4 1 5 2;
#X connect 4 1 15 0;
#X connect 4 1 5 0;
#X connect 4 2 1 1;
#X connect 5 2 3 0;
#X connect 5 2 16 0;
#X connect 6 0 14 0;
#X connect 7 0 6 0;
#X connect 11 0 5 0;
#X connect 11 1 1 0;
#X connect 11 1 12 0;
#X connect 12 0 3 1;
#X connect 12 0 13 1;
#X connect 13 0 1 1;
#X connect 13 1 12 1;
#X connect 14 0 4 0;
#X connect 14 1 19 1;
#X connect 15 0 12 0;
#X connect 16 0 18 0;
#X connect 17 0 5 0;
#X connect 18 0 11 0;
#X connect 19 0 2 0;
